<svg width="35" height="35" viewBox="0 0 35 35" fill="none" xmlns="http://www.w3.org/2000/svg">
<path fill-rule="evenodd" clip-rule="evenodd" d="M10.8865 1.5545C12.5971 1.47575 13.1425 1.45825 17.5 1.45825C21.8575 1.45825 22.4029 1.47721 24.1121 1.5545C25.8213 1.63179 26.9879 1.9045 28.0088 2.29971C29.0777 2.70367 30.0475 3.33513 30.8496 4.15179C31.6663 4.95242 32.2963 5.92075 32.6988 6.99117C33.0954 8.012 33.3667 9.17867 33.4454 10.8849C33.5242 12.5985 33.5417 13.1439 33.5417 17.4999C33.5417 21.8574 33.5227 22.4028 33.4454 24.1135C33.3681 25.8197 33.0954 26.9864 32.6988 28.0072C32.2962 29.0778 31.6652 30.0477 30.8496 30.8495C30.0475 31.6662 29.0777 32.2962 28.0088 32.6987C26.9879 33.0953 25.8213 33.3666 24.115 33.4453C22.4029 33.5241 21.8575 33.5416 17.5 33.5416C13.1425 33.5416 12.5971 33.5226 10.8865 33.4453C9.18021 33.368 8.01355 33.0953 6.99271 32.6987C5.92218 32.2961 4.95224 31.6651 4.15042 30.8495C3.33431 30.0484 2.70275 29.0789 2.29979 28.0087C1.90459 26.9878 1.63334 25.8212 1.55459 24.1149C1.47584 22.4014 1.45834 21.856 1.45834 17.4999C1.45834 13.1424 1.47729 12.597 1.55459 10.8878C1.63188 9.17867 1.90459 8.012 2.29979 6.99117C2.70335 5.92087 3.33538 4.95142 4.15188 4.15034C4.95256 3.3344 5.92153 2.70286 6.99125 2.29971C8.01209 1.9045 9.17875 1.63325 10.885 1.5545H10.8865ZM23.9823 4.442C22.2906 4.36471 21.7831 4.34867 17.5 4.34867C13.2169 4.34867 12.7094 4.36471 11.0177 4.442C9.45292 4.51346 8.60417 4.7745 8.03834 4.99471C7.29021 5.28638 6.755 5.632 6.19354 6.19346C5.66132 6.71124 5.25172 7.34158 4.99479 8.03825C4.77459 8.60409 4.51354 9.45284 4.44209 11.0176C4.36479 12.7093 4.34875 13.2168 4.34875 17.4999C4.34875 21.783 4.36479 22.2905 4.44209 23.9822C4.51354 25.547 4.77459 26.3958 4.99479 26.9616C5.25146 27.6572 5.66125 28.2887 6.19354 28.8064C6.71125 29.3387 7.34271 29.7485 8.03834 30.0051C8.60417 30.2253 9.45292 30.4864 11.0177 30.5578C12.7094 30.6351 13.2154 30.6512 17.5 30.6512C21.7846 30.6512 22.2906 30.6351 23.9823 30.5578C25.5471 30.4864 26.3958 30.2253 26.9617 30.0051C27.7098 29.7135 28.245 29.3678 28.8065 28.8064C29.3388 28.2887 29.7485 27.6572 30.0052 26.9616C30.2254 26.3958 30.4865 25.547 30.5579 23.9822C30.6352 22.2905 30.6513 21.783 30.6513 17.4999C30.6513 13.2168 30.6352 12.7093 30.5579 11.0176C30.4865 9.45284 30.2254 8.60409 30.0052 8.03825C29.7135 7.29013 29.3679 6.75492 28.8065 6.19346C28.2886 5.66127 27.6583 5.25168 26.9617 4.99471C26.3958 4.7745 25.5471 4.51346 23.9823 4.442ZM15.451 22.4451C16.5953 22.9215 17.8695 22.9858 19.0559 22.627C20.2424 22.2683 21.2675 21.5088 21.9561 20.4782C22.6448 19.4476 22.9543 18.2099 22.8317 16.9765C22.7092 15.7431 22.1623 14.5905 21.2844 13.7155C20.7247 13.1562 20.048 12.728 19.303 12.4616C18.558 12.1952 17.7631 12.0973 16.9757 12.175C16.1883 12.2526 15.4279 12.5039 14.7493 12.9107C14.0707 13.3175 13.4907 13.8698 13.0511 14.5276C12.6115 15.1855 12.3232 15.9326 12.207 16.7153C12.0908 17.4979 12.1496 18.2966 12.3791 19.0538C12.6086 19.811 13.0032 20.5079 13.5344 21.0943C14.0656 21.6807 14.7202 22.1421 15.451 22.4451ZM11.6696 11.6695C12.4352 10.9038 13.3442 10.2965 14.3446 9.88211C15.345 9.46774 16.4172 9.25446 17.5 9.25446C18.5828 9.25446 19.655 9.46774 20.6554 9.88211C21.6558 10.2965 22.5648 10.9038 23.3304 11.6695C24.0961 12.4352 24.7034 13.3441 25.1178 14.3445C25.5322 15.3449 25.7455 16.4171 25.7455 17.4999C25.7455 18.5827 25.5322 19.6549 25.1178 20.6553C24.7034 21.6557 24.0961 22.5647 23.3304 23.3303C21.7841 24.8767 19.6868 25.7454 17.5 25.7454C15.3132 25.7454 13.2159 24.8767 11.6696 23.3303C10.1233 21.784 9.25455 19.6868 9.25455 17.4999C9.25455 15.3131 10.1233 13.2158 11.6696 11.6695ZM27.5742 10.4824C27.7639 10.3034 27.9158 10.0882 28.0209 9.84947C28.1259 9.61073 28.182 9.35333 28.1858 9.09253C28.1896 8.83172 28.1411 8.5728 28.043 8.3311C27.9449 8.0894 27.7994 7.86983 27.6149 7.68539C27.4305 7.50096 27.2109 7.3554 26.9692 7.25734C26.7275 7.15928 26.4686 7.11072 26.2078 7.11452C25.947 7.11832 25.6896 7.17441 25.4509 7.27948C25.2121 7.38454 24.9969 7.53643 24.8179 7.72617C24.4698 8.09517 24.2793 8.5853 24.2867 9.09253C24.294 9.59975 24.4988 10.0841 24.8575 10.4428C25.2162 10.8015 25.7006 11.0063 26.2078 11.0137C26.715 11.0211 27.2052 10.8305 27.5742 10.4824Z" fill="#CCCCCC"/>
</svg>
