<svg width="35" height="35" viewBox="0 0 35 35" fill="none" xmlns="http://www.w3.org/2000/svg">
<path fill-rule="evenodd" clip-rule="evenodd" d="M1.45833 4.13867C1.45833 3.42778 1.74073 2.74601 2.24341 2.24333C2.74608 1.74066 3.42786 1.45826 4.13875 1.45826H30.8583C31.2106 1.45768 31.5596 1.5266 31.8852 1.66106C32.2108 1.79552 32.5067 1.99289 32.756 2.24187C33.0052 2.49085 33.2029 2.78654 33.3377 3.11202C33.4726 3.4375 33.5419 3.78638 33.5417 4.13867V30.8583C33.5421 31.2106 33.473 31.5596 33.3383 31.8852C33.2037 32.2109 33.0062 32.5068 32.7571 32.756C32.508 33.0052 32.2122 33.2029 31.8867 33.3377C31.5611 33.4725 31.2122 33.5418 30.8598 33.5416H4.13875C3.78663 33.5416 3.43796 33.4722 3.11266 33.3374C2.78736 33.2026 2.49181 33.0051 2.24289 32.756C1.99397 32.5069 1.79657 32.2113 1.66195 31.8859C1.52733 31.5605 1.45814 31.2118 1.45833 30.8597V4.13867ZM14.1575 13.6908H18.5019V15.8724C19.129 14.6183 20.7331 13.4895 23.1438 13.4895C27.7652 13.4895 28.8604 15.9876 28.8604 20.5712V29.0616H24.1835V21.6153C24.1835 19.0049 23.5565 17.532 21.964 17.532C19.7546 17.532 18.8358 19.1201 18.8358 21.6153V29.0616H14.1575V13.6908ZM6.13667 28.8618H10.815V13.4895H6.13667V28.8603V28.8618ZM11.4844 8.47576C11.4932 8.87632 11.4219 9.27461 11.2747 9.64726C11.1275 10.0199 10.9074 10.3594 10.6272 10.6458C10.347 10.9322 10.0125 11.1598 9.64316 11.3151C9.27385 11.4705 8.87722 11.5505 8.47656 11.5505C8.0759 11.5505 7.67928 11.4705 7.30996 11.3151C6.94065 11.1598 6.60609 10.9322 6.32591 10.6458C6.04574 10.3594 5.82559 10.0199 5.6784 9.64726C5.53121 9.27461 5.45993 8.87632 5.46875 8.47576C5.48606 7.6895 5.81056 6.94128 6.37275 6.39134C6.93494 5.84139 7.69012 5.53345 8.47656 5.53345C9.26301 5.53345 10.0182 5.84139 10.5804 6.39134C11.1426 6.94128 11.4671 7.6895 11.4844 8.47576Z" fill="#CCCCCC"/>
</svg>
