<svg width="18" height="15" viewBox="0 0 18 15" fill="none" xmlns="http://www.w3.org/2000/svg">
<path d="M14.6968 0.612945C14.9838 0.298797 15.3815 0.108402 15.8062 0.0819348C16.2308 0.0554681 16.6491 0.195001 16.9728 0.471088C17.2966 0.747177 17.5004 1.13823 17.5412 1.56172C17.5821 1.98522 17.4569 2.40803 17.192 2.74095L9.24655 14.2388C9.10811 14.4106 8.93646 14.5526 8.74187 14.6565C8.54727 14.7604 8.33373 14.8239 8.11401 14.8434C7.89429 14.8628 7.6729 14.8378 7.46308 14.7697C7.25326 14.7017 7.05932 14.592 6.89286 14.4473L0.715072 9.07701C0.543797 8.93842 0.402192 8.76675 0.298702 8.57225C0.195212 8.37775 0.131958 8.16439 0.112714 7.94491C0.0934705 7.72543 0.118631 7.50432 0.186695 7.29478C0.254758 7.08523 0.36433 6.89154 0.508874 6.72527C0.653418 6.55899 0.829973 6.42352 1.02801 6.32696C1.22604 6.2304 1.44149 6.17471 1.66152 6.16322C1.88154 6.15173 2.10162 6.18467 2.30863 6.26009C2.51565 6.3355 2.70535 6.45184 2.86643 6.60216L7.75527 10.8499L14.6587 0.663853C14.6712 0.646098 14.6846 0.629051 14.699 0.612793L14.6968 0.612945Z" fill="#0066FF"/>
</svg>
